<?xml version="1.0" standalone="no"?>
<!DOCTYPE svg PUBLIC "-//W3C//DTD SVG 20010904//EN"
 "http://www.w3.org/TR/2001/REC-SVG-20010904/DTD/svg10.dtd">
<svg version="1.0" xmlns="http://www.w3.org/2000/svg"
 width="700.000000pt" height="700.000000pt" viewBox="0 0 700.000000 700.000000"
 preserveAspectRatio="xMidYMid meet">
<metadata>
Created by potrace 1.11, written by Peter Selinger 2001-2013
</metadata>
<g transform="translate(0.000000,700.000000) scale(0.100000,-0.100000)"
fill="#000000" stroke="none">
<path d="M2015 5289 c-280 -54 -519 -98 -530 -99 -49 -1 -47 96 -47 -1689 0
-920 3 -1675 6 -1678 5 -5 120 -28 651 -128 72 -13 202 -38 290 -55 88 -16
166 -30 172 -30 10 0 13 229 15 1095 l3 1094 450 -450 c248 -247 458 -454 467
-459 14 -9 63 36 289 262 149 150 277 271 283 270 6 -2 8 -1 4 3 -6 6 340 365
352 365 3 0 4 -491 3 -1091 l-2 -1091 42 6 c23 4 123 22 222 41 99 19 191 36
205 39 105 18 629 118 643 122 16 5 17 94 17 1684 l0 1680 -22 5 c-92 20
-1091 206 -1098 203 -5 -2 -214 -207 -463 -455 -250 -249 -458 -453 -463 -453
-15 0 -77 60 -516 496 -321 319 -422 414 -440 413 -12 -1 -252 -45 -533 -100z"/>
</g>
</svg>
